<svg width="30" height="30" viewBox="0 0 30 30" fill="none" xmlns="http://www.w3.org/2000/svg">
<path d="M16.875 27.1875H13.125C12.8764 27.1875 12.6379 27.2863 12.4621 27.4621C12.2863 27.6379 12.1875 27.8764 12.1875 28.125C12.1875 28.3737 12.2863 28.6121 12.4621 28.7879C12.6379 28.9638 12.8764 29.0625 13.125 29.0625H16.875C17.1237 29.0625 17.3621 28.9638 17.5379 28.7879C17.7138 28.6121 17.8125 28.3737 17.8125 28.125C17.8125 27.8764 17.7138 27.6379 17.5379 27.4621C17.3621 27.2863 17.1237 27.1875 16.875 27.1875ZM17.8125 24.375H12.1875C11.9389 24.375 11.7004 24.4738 11.5246 24.6496C11.3488 24.8254 11.25 25.0639 11.25 25.3125C11.25 25.5612 11.3488 25.7996 11.5246 25.9754C11.7004 26.1513 11.9389 26.25 12.1875 26.25H17.8125C18.0612 26.25 18.2996 26.1513 18.4754 25.9754C18.6513 25.7996 18.75 25.5612 18.75 25.3125C18.75 25.0639 18.6513 24.8254 18.4754 24.6496C18.2996 24.4738 18.0612 24.375 17.8125 24.375ZM21.6457 3.67327C19.8838 1.90901 17.5237 0.937527 15 0.937527C13.7681 0.93459 12.5477 1.17508 11.4089 1.64518C10.2701 2.11527 9.23549 2.80572 8.36435 3.67685C7.49322 4.54799 6.80277 5.58265 6.33268 6.7214C5.86258 7.86015 5.62209 9.08056 5.62503 10.3125C5.62503 13.0442 6.6721 15.5994 8.49612 17.3227L8.75159 17.5623C9.80686 18.5491 11.25 19.9008 11.25 21.0938V22.5C11.25 22.7487 11.3488 22.9871 11.5246 23.1629C11.7004 23.3388 11.9389 23.4375 12.1875 23.4375H13.5938C13.7181 23.4375 13.8373 23.3881 13.9252 23.3002C14.0131 23.2123 14.0625 23.0931 14.0625 22.9688V16.1028C14.0626 16.008 14.0338 15.9154 13.9802 15.8372C13.9265 15.7591 13.8504 15.6991 13.7619 15.6651C13.2206 15.4442 12.7063 15.1621 12.2291 14.8242C12.1219 14.7558 12.0297 14.6662 11.9582 14.5609C11.8867 14.4557 11.8374 14.337 11.8132 14.2121C11.7891 14.0872 11.7906 13.9587 11.8177 13.8343C11.8448 13.71 11.897 13.5925 11.9709 13.489C12.0449 13.3855 12.1392 13.2981 12.248 13.2322C12.3568 13.1663 12.4779 13.1232 12.6039 13.1056C12.7299 13.088 12.8582 13.0962 12.9809 13.1298C13.1037 13.1634 13.2183 13.2215 13.3178 13.3008C13.7514 13.6078 14.5864 14.0625 15 14.0625C15.4137 14.0625 16.2487 13.6067 16.6834 13.3008C16.8859 13.1735 17.1293 13.1284 17.3639 13.1747C17.5985 13.221 17.8065 13.3552 17.9454 13.5498C18.0844 13.7444 18.1437 13.9848 18.1112 14.2217C18.0788 14.4586 17.9571 14.6741 17.7709 14.8242C17.2937 15.1615 16.7794 15.443 16.2381 15.6633C16.1496 15.6973 16.0735 15.7574 16.0199 15.8355C15.9662 15.9136 15.9375 16.0062 15.9375 16.101V22.9688C15.9375 23.0931 15.9869 23.2123 16.0748 23.3002C16.1627 23.3881 16.282 23.4375 16.4063 23.4375H17.8125C18.0612 23.4375 18.2996 23.3388 18.4754 23.1629C18.6513 22.9871 18.75 22.7487 18.75 22.5V21.0938C18.75 19.9289 20.1774 18.5783 21.2198 17.5916L21.5074 17.3186C23.3836 15.5274 24.375 13.1022 24.375 10.3125C24.3812 9.08044 24.1432 7.85934 23.6748 6.71977C23.2063 5.58021 22.5167 4.54476 21.6457 3.67327Z" fill="white"/>
</svg>
