<svg width="22" height="22" viewBox="0 0 22 22" fill="none" xmlns="http://www.w3.org/2000/svg">
<path d="M19.75 7.24999H16.525L20.6375 3.13749C20.8729 2.90211 21.0051 2.58286 21.0051 2.24999C21.0051 1.91711 20.8729 1.59787 20.6375 1.36249C20.4021 1.12711 20.0829 0.994873 19.75 0.994873C19.4171 0.994873 19.0979 1.12711 18.8625 1.36249L14.75 5.46249V2.24999C14.75 1.91847 14.6183 1.60052 14.3839 1.3661C14.1494 1.13168 13.8315 0.999988 13.5 0.999988C13.1685 0.999988 12.8505 1.13168 12.6161 1.3661C12.3817 1.60052 12.25 1.91847 12.25 2.24999V8.49999C12.25 8.83151 12.3817 9.14945 12.6161 9.38387C12.8505 9.61829 13.1685 9.74999 13.5 9.74999H19.75C20.0815 9.74999 20.3994 9.61829 20.6339 9.38387C20.8683 9.14945 21 8.83151 21 8.49999C21 8.16847 20.8683 7.85052 20.6339 7.6161C20.3994 7.38168 20.0815 7.24999 19.75 7.24999ZM8.49998 12.25H2.24998C1.91846 12.25 1.60052 12.3817 1.3661 12.6161C1.13168 12.8505 0.999985 13.1685 0.999985 13.5C0.999985 13.8315 1.13168 14.1495 1.3661 14.3839C1.60052 14.6183 1.91846 14.75 2.24998 14.75H5.46248L1.36248 18.8625C1.24532 18.9787 1.15233 19.1169 1.08887 19.2693C1.02541 19.4216 0.992737 19.585 0.992737 19.75C0.992737 19.915 1.02541 20.0784 1.08887 20.2307C1.15233 20.383 1.24532 20.5213 1.36248 20.6375C1.47869 20.7546 1.61694 20.8476 1.76926 20.9111C1.92159 20.9746 2.08497 21.0072 2.24998 21.0072C2.415 21.0072 2.57838 20.9746 2.73071 20.9111C2.88303 20.8476 3.02128 20.7546 3.13748 20.6375L7.24998 16.525V19.75C7.24998 20.0815 7.38168 20.3995 7.6161 20.6339C7.85052 20.8683 8.16846 21 8.49998 21C8.83151 21 9.14945 20.8683 9.38387 20.6339C9.61829 20.3995 9.74998 20.0815 9.74998 19.75V13.5C9.74998 13.1685 9.61829 12.8505 9.38387 12.6161C9.14945 12.3817 8.83151 12.25 8.49998 12.25Z" fill="white"/>
</svg>
