<svg width="30" height="30" viewBox="0 0 30 30" fill="none" xmlns="http://www.w3.org/2000/svg">
<path d="M14.7461 18.125C14.7461 18.2943 14.681 18.444 14.5508 18.5742L8.06641 25.0586L10.8789 27.8711C11.1263 28.1185 11.25 28.4115 11.25 28.75C11.25 29.0885 11.1263 29.3815 10.8789 29.6289C10.6315 29.8763 10.3385 30 10 30H1.25C0.911458 30 0.61849 29.8763 0.371094 29.6289C0.123698 29.3815 0 29.0885 0 28.75V20C0 19.6615 0.123698 19.3685 0.371094 19.1211C0.61849 18.8737 0.911458 18.75 1.25 18.75C1.58854 18.75 1.88151 18.8737 2.12891 19.1211L4.94141 21.9336L11.4258 15.4492C11.556 15.319 11.7057 15.2539 11.875 15.2539C12.0443 15.2539 12.194 15.319 12.3242 15.4492L14.5508 17.6758C14.681 17.806 14.7461 17.9557 14.7461 18.125ZM30 1.25V10C30 10.3385 29.8763 10.6315 29.6289 10.8789C29.3815 11.1263 29.0885 11.25 28.75 11.25C28.4115 11.25 28.1185 11.1263 27.8711 10.8789L25.0586 8.06641L18.5742 14.5508C18.444 14.681 18.2943 14.7461 18.125 14.7461C17.9557 14.7461 17.806 14.681 17.6758 14.5508L15.4492 12.3242C15.319 12.194 15.2539 12.0443 15.2539 11.875C15.2539 11.7057 15.319 11.556 15.4492 11.4258L21.9336 4.94141L19.1211 2.12891C18.8737 1.88151 18.75 1.58854 18.75 1.25C18.75 0.911458 18.8737 0.61849 19.1211 0.371094C19.3685 0.123698 19.6615 0 20 0H28.75C29.0885 0 29.3815 0.123698 29.6289 0.371094C29.8763 0.61849 30 0.911458 30 1.25Z" fill="white"/>
</svg>
