<svg width="40" height="9" viewBox="0 0 40 9" fill="none" xmlns="http://www.w3.org/2000/svg">
<path d="M4.44444 0C2 0 0 2 0 4.44444C0 6.88889 2 8.88889 4.44444 8.88889C6.88889 8.88889 8.88889 6.88889 8.88889 4.44444C8.88889 2 6.88889 0 4.44444 0ZM35.5556 0C33.1111 0 31.1111 2 31.1111 4.44444C31.1111 6.88889 33.1111 8.88889 35.5556 8.88889C38 8.88889 40 6.88889 40 4.44444C40 2 38 0 35.5556 0ZM20 0C17.5556 0 15.5556 2 15.5556 4.44444C15.5556 6.88889 17.5556 8.88889 20 8.88889C22.4444 8.88889 24.4444 6.88889 24.4444 4.44444C24.4444 2 22.4444 0 20 0Z" fill="#E8E5E5"/>
</svg>
