<svg width="24" height="32" viewBox="0 0 24 32" fill="none" xmlns="http://www.w3.org/2000/svg">
<path d="M6.82813 10.828C8.39 9.26616 8.39 6.73304 6.82813 5.17116C5.26625 3.60929 2.73313 3.60929 1.17125 5.17116C-0.390621 6.73304 -0.390621 9.26616 1.17125 10.828C2.73375 12.3905 5.26625 12.3905 6.82813 10.828ZM22.8281 21.1712C21.2663 19.6093 18.7331 19.6093 17.1713 21.1712C15.6094 22.733 15.6094 25.2662 17.1713 26.828C18.7331 28.3899 21.2663 28.3899 22.8281 26.828C24.3906 25.2662 24.3906 22.7337 22.8281 21.1712ZM22.7069 6.70679L21.2931 5.29304C20.5119 4.51179 19.2456 4.51179 18.465 5.29304L1.29313 22.4649C0.511879 23.2462 0.511879 24.5124 1.29313 25.293L2.70688 26.7068C3.48813 27.488 4.75438 27.488 5.535 26.7068L22.7069 9.53491C23.4881 8.75429 23.4881 7.48804 22.7069 6.70679Z" fill="#222222"/>
</svg>
