<svg width="21" height="20" viewBox="0 0 21 20" fill="none" xmlns="http://www.w3.org/2000/svg">
<path d="M15.6775 12.93C16.8879 11.2784 17.43 9.23061 17.1954 7.19644C16.9608 5.16226 15.9668 3.29167 14.4122 1.95891C12.8576 0.626151 10.8572 -0.0704958 8.81104 0.00834563C6.7649 0.0871871 4.82397 0.935702 3.37658 2.38413C1.92918 3.83257 1.08206 5.7741 1.00468 7.82029C0.927302 9.86649 1.62538 11.8664 2.95925 13.4201C4.29313 14.9737 6.16442 15.9663 8.19877 16.1995C10.2331 16.4326 12.2805 15.889 13.9312 14.6775H13.93C13.9675 14.7275 14.0075 14.775 14.0525 14.8212L18.865 19.6337C19.0994 19.8683 19.4173 20.0001 19.7489 20.0003C20.0805 20.0004 20.3986 19.8688 20.6331 19.6344C20.8677 19.4 20.9995 19.082 20.9996 18.7504C20.9997 18.4189 20.8681 18.1008 20.6337 17.8662L15.8212 13.0537C15.7766 13.0085 15.7285 12.968 15.6775 12.93ZM16 8.125C16 9.02784 15.8222 9.92183 15.4767 10.7559C15.1312 11.5901 14.6248 12.348 13.9864 12.9864C13.3479 13.6248 12.5901 14.1312 11.7559 14.4767C10.9218 14.8222 10.0278 15 9.12499 15C8.22216 15 7.32816 14.8222 6.49404 14.4767C5.65993 14.1312 4.90204 13.6248 4.26363 12.9864C3.62523 12.348 3.11882 11.5901 2.77332 10.7559C2.42782 9.92183 2.24999 9.02784 2.24999 8.125C2.24999 6.30164 2.97432 4.55295 4.26363 3.26364C5.55295 1.97433 7.30163 1.25 9.12499 1.25C10.9484 1.25 12.697 1.97433 13.9864 3.26364C15.2757 4.55295 16 6.30164 16 8.125Z" fill="#6D6B6B"/>
</svg>
