<svg width="29" height="31" viewBox="0 0 29 31" fill="none" xmlns="http://www.w3.org/2000/svg">
<path d="M25.4375 15.5001C25.4375 15.1647 25.4229 14.8438 25.3937 14.5084L28.1062 12.4522C28.6896 12.0147 28.85 11.198 28.4854 10.5563L25.7583 5.84591C25.5835 5.53702 25.3006 5.30362 24.9642 5.19057C24.6277 5.07751 24.2613 5.09277 23.9354 5.23341L20.8 6.5605C20.2604 6.18133 19.6917 5.84591 19.0938 5.56883L18.6708 2.20008C18.5833 1.47091 17.9563 0.916748 17.2271 0.916748H11.7875C11.0438 0.916748 10.4167 1.47091 10.3292 2.20008L9.90625 5.56883C9.30833 5.84591 8.73958 6.18133 8.2 6.5605L5.06458 5.23341C4.39375 4.94175 3.60625 5.20425 3.24167 5.84591L0.514583 10.5709C0.15 11.2126 0.310417 12.0147 0.89375 12.4667L3.60625 14.523C3.5458 15.1779 3.5458 15.8369 3.60625 16.4917L0.89375 18.548C0.310417 18.9855 0.15 19.8022 0.514583 20.4438L3.24167 25.1542C3.60625 25.7959 4.39375 26.0584 5.06458 25.7667L8.2 24.4397C8.73958 24.8188 9.30833 25.1542 9.90625 25.4313L10.3292 28.8001C10.4167 29.5292 11.0438 30.0834 11.7729 30.0834H17.2125C17.9417 30.0834 18.5688 29.5292 18.6563 28.8001L19.0792 25.4313C19.6771 25.1542 20.2458 24.8188 20.7854 24.4397L23.9208 25.7667C24.5917 26.0584 25.3792 25.7959 25.7437 25.1542L28.4708 20.4438C28.8354 19.8022 28.675 19.0001 28.0917 18.548L25.3792 16.4917C25.4229 16.1563 25.4375 15.8355 25.4375 15.5001ZM14.5583 20.6042C11.7438 20.6042 9.45417 18.3147 9.45417 15.5001C9.45417 12.6855 11.7438 10.3959 14.5583 10.3959C17.3729 10.3959 19.6625 12.6855 19.6625 15.5001C19.6625 18.3147 17.3729 20.6042 14.5583 20.6042Z" fill="#E8E5E5"/>
</svg>
