<svg width="48" height="48" viewBox="0 0 48 48" fill="none" xmlns="http://www.w3.org/2000/svg">
<path d="M26 40.031C26.5304 40.031 27.0391 40.2417 27.4142 40.6168C27.7893 40.9919 28 41.5006 28 42.031C28 42.5614 27.7893 43.0701 27.4142 43.4452C27.0391 43.8203 26.5304 44.031 26 44.031C25.4696 44.031 24.9609 43.8203 24.5858 43.4452C24.2107 43.0701 24 42.5614 24 42.031C24 41.5006 24.2107 40.9919 24.5858 40.6168C24.9609 40.2417 25.4696 40.031 26 40.031ZM19 38.031C19.5304 38.031 20.0391 38.2417 20.4142 38.6168C20.7893 38.9919 21 39.5006 21 40.031C21 40.5614 20.7893 41.0701 20.4142 41.4452C20.0391 41.8203 19.5304 42.031 19 42.031C18.4696 42.031 17.9609 41.8203 17.5858 41.4452C17.2107 41.0701 17 40.5614 17 40.031C17 39.5006 17.2107 38.9919 17.5858 38.6168C17.9609 38.2417 18.4696 38.031 19 38.031ZM33 38.031C33.5304 38.031 34.0391 38.2417 34.4142 38.6168C34.7893 38.9919 35 39.5006 35 40.031C35 40.5614 34.7893 41.0701 34.4142 41.4452C34.0391 41.8203 33.5304 42.031 33 42.031C32.4696 42.031 31.9609 41.8203 31.5858 41.4452C31.2107 41.0701 31 40.5614 31 40.031C31 39.5006 31.2107 38.9919 31.5858 38.6168C31.9609 38.2417 32.4696 38.031 33 38.031ZM25.999 12.01C32.336 12.01 35.931 16.204 36.454 21.27H36.614C40.692 21.27 43.998 24.567 43.998 28.635C43.998 32.703 40.692 36 36.614 36H15.384C11.306 36 8 32.703 8 28.635C8 24.567 11.306 21.27 15.384 21.27H15.544C16.07 16.171 19.662 12.01 25.999 12.01ZM25.999 14.505C21.738 14.505 18.024 17.953 18.024 22.715C18.024 23.47 17.368 24.062 16.616 24.062H15.196C12.602 24.062 10.499 26.176 10.499 28.783C10.499 31.391 12.602 33.505 15.196 33.505H36.802C39.396 33.505 41.499 31.391 41.499 28.783C41.499 26.176 39.396 24.063 36.802 24.063H35.382C34.63 24.063 33.974 23.47 33.974 22.715C33.974 17.892 30.26 14.505 25.999 14.505ZM8.70899 20.303C8.82657 20.5875 8.83451 20.9055 8.73126 21.1954C8.628 21.4854 8.4209 21.7268 8.14999 21.873L8.035 21.928L5.724 22.89C5.42989 23.0096 5.10117 23.0123 4.80518 22.8974C4.50919 22.7825 4.26833 22.5588 4.13194 22.2721C3.99555 21.9853 3.97395 21.6573 4.07156 21.3552C4.16918 21.0531 4.37863 20.7997 4.657 20.647L4.772 20.592L7.084 19.63C7.38862 19.5042 7.73074 19.5043 8.03523 19.6305C8.33971 19.7567 8.58268 19.9986 8.70899 20.303ZM21.709 10.663L21.647 10.682C20.723 10.984 19.863 11.384 19.077 11.872C18.003 11.4176 16.8124 11.3163 15.6771 11.5827C14.5418 11.8491 13.5205 12.4696 12.7609 13.3543C12.0012 14.2391 11.5424 15.3424 11.4507 16.505C11.3591 17.6675 11.6393 18.8291 12.251 19.822C11.4985 20.0909 10.7839 20.4559 10.125 20.908C9.20492 19.3323 8.85997 17.4862 9.14898 15.6845C9.43798 13.8829 10.343 12.2373 11.7098 11.0284C13.0766 9.8195 14.8204 9.12219 16.6438 9.05537C18.4673 8.98856 20.2574 9.55638 21.709 10.662V10.663ZM5.58 10.842L5.707 10.888L8.026 11.877C8.656 12.143 8.958 12.872 8.701 13.505C8.461 14.097 7.818 14.395 7.221 14.216L7.095 14.171L4.775 13.181C4.47218 13.0515 4.23208 12.8087 4.10611 12.5044C3.98014 12.2001 3.9783 11.8586 4.101 11.553C4.341 10.962 4.983 10.663 5.58 10.842ZM12.948 4.668L13.003 4.784L13.963 7.09C14.0834 7.38559 14.0862 7.71606 13.9708 8.01365C13.8554 8.31124 13.6305 8.55341 13.3423 8.6905C13.054 8.82759 12.7242 8.84922 12.4206 8.75095C12.1169 8.65269 11.8623 8.44197 11.709 8.162L11.654 8.047L10.694 5.741C10.5723 5.44521 10.5686 5.11401 10.6837 4.81557C10.7988 4.51714 11.0239 4.27417 11.3127 4.13669C11.6015 3.99921 11.932 3.97767 12.2362 4.0765C12.5404 4.17534 12.7951 4.38703 12.948 4.668ZM21.997 4.108C22.599 4.358 22.905 5.018 22.727 5.629L22.681 5.759L21.689 8.035C21.5664 8.33505 21.3332 8.5765 21.0376 8.70937C20.7419 8.84225 20.4065 8.85638 20.1008 8.74885C19.795 8.64132 19.5423 8.42036 19.3949 8.13168C19.2475 7.84301 19.2168 7.50872 19.309 7.198L19.355 7.068L20.346 4.792C20.4743 4.48267 20.7201 4.2369 21.0295 4.10865C21.3389 3.98041 21.6875 3.98017 21.997 4.108Z" fill="white"/>
</svg>
